<?xml version="1.0" encoding="UTF-8"?>
<svg width="20px" height="17px" viewBox="0 0 20 17" version="1.1" xmlns="http://www.w3.org/2000/svg" xmlns:xlink="http://www.w3.org/1999/xlink">
    <!-- Generator: Sketch 42 (36781) - http://www.bohemiancoding.com/sketch -->
    <title>twitter-icon</title>
    <desc>Created with Sketch.</desc>
    <defs></defs>
    <g id="Page-1" stroke="none" stroke-width="1" fill="none" fill-rule="evenodd">
        <g id="Desktop-HD" transform="translate(-766.000000, -480.000000)" fill="#FFFFFF">
            <g id="Group" transform="translate(445.000000, 460.000000)">
                <g id="button-copy" transform="translate(290.000000, 0.000000)">
                    <path d="M51,21.9601175 C50.4331634,22.7892245 49.7478911,23.4956461 48.9441632,24.0794049 C48.9526229,24.1978492 48.9568527,24.3755141 48.9568527,24.6123998 C48.9568527,25.712237 48.79611,26.8099423 48.4746188,27.9055496 C48.1531304,29.0011541 47.6645546,30.0523282 47.0088827,31.059103 C46.3532136,32.0658751 45.572764,32.9563064 44.6675141,33.7304217 C43.7622641,34.5045373 42.6709036,35.1221283 41.3934014,35.5832136 C40.1158993,36.0442989 38.7495845,36.2748381 37.2944173,36.2748381 C35.0016806,36.2748381 32.9035629,35.6614769 31,34.4347366 C31.2961098,34.4685776 31.6260559,34.4854979 31.9898478,34.4854979 C33.8934093,34.4854979 35.5896721,33.9017473 37.0786809,32.734228 C36.1903503,32.7173086 35.3950962,32.4444692 34.6928931,31.9157012 C33.9906901,31.3869333 33.5084615,30.7122356 33.2461931,29.8915883 C33.5253821,29.9338896 33.7834167,29.9550417 34.0203047,29.9550417 C34.3840972,29.9550417 34.7436542,29.9085105 35.0989841,29.8154482 C34.1514328,29.620861 33.3667545,29.1492073 32.744924,28.4004731 C32.1230934,27.6517388 31.8121828,26.7824568 31.8121828,25.7926041 L31.8121828,25.7418431 C32.3874816,26.0633343 33.005073,26.2367666 33.6649747,26.2621485 C33.1065961,25.8898963 32.6624382,25.4034354 32.3324874,24.8027572 C32.0025365,24.2020762 31.8375636,23.5506455 31.8375636,22.8484424 C31.8375636,22.103938 32.0236869,21.4144358 32.3959391,20.7799132 C33.419633,22.040496 34.6653906,23.0493687 36.1332502,23.8065626 C37.6011069,24.5637594 39.1725806,24.984652 40.8477169,25.0692547 C40.7800337,24.7477635 40.7461921,24.4347377 40.7461921,24.1301688 C40.7461921,22.9964899 41.1459354,22.0299185 41.9454307,21.2304204 C42.7449288,20.4309251 43.7115002,20.0311818 44.845179,20.0311818 C46.029616,20.0311818 47.0279142,20.462649 47.8401018,21.3255977 C48.762274,21.1479327 49.6294383,20.8179875 50.441626,20.3357507 C50.1285945,21.308684 49.5279248,22.0616367 48.6395942,22.5946345 C49.4263999,22.5100318 50.2131943,22.2985281 51,21.9601175 Z" id="twitter-icon"></path>
                </g>
            </g>
        </g>
    </g>
</svg>