<?xml version="1.0" encoding="UTF-8"?>
<svg width="18px" height="18px" viewBox="0 0 18 18" version="1.1" xmlns="http://www.w3.org/2000/svg" xmlns:xlink="http://www.w3.org/1999/xlink">
    <!-- Generator: Sketch 42 (36781) - http://www.bohemiancoding.com/sketch -->
    <title>Page 1</title>
    <desc>Created with Sketch.</desc>
    <defs></defs>
    <g id="Page-1" stroke="none" stroke-width="1" fill="none" fill-rule="evenodd">
        <g id="Desktop-HD" transform="translate(-477.000000, -479.000000)" fill="#FFFFFF">
            <g id="Group" transform="translate(445.000000, 460.000000)">
                <g id="button">
                    <path d="M50,28.2254053 C50,30.235466 49.4277395,32.0432905 48.2832028,33.6489352 C47.1386661,35.2545812 45.6601637,36.3657031 43.8476564,36.9823347 C43.6367166,37.0223758 43.4824218,36.9943475 43.3847665,36.898249 C43.2871086,36.8021506 43.238281,36.6820293 43.238281,36.5378816 L43.238281,34.003298 C43.238281,33.2265019 43.0351585,32.6579263 42.6289057,32.2975577 C43.0742211,32.2495091 43.4746071,32.1774348 43.8300768,32.0813376 C44.185549,31.9852404 44.5527314,31.8290804 44.9316396,31.6128603 C45.3105478,31.3966375 45.6269522,31.1303696 45.880858,30.8140458 C46.1347663,30.497722 46.3417948,30.077296 46.5019539,29.5527598 C46.6621104,29.0282209 46.7421861,28.4256127 46.7421861,27.7449165 C46.7421861,26.7759232 46.4335963,25.9510893 45.8164063,25.270393 C46.1054687,24.5416455 46.0742207,23.7248219 45.7226571,22.8198952 C45.5039053,22.747821 45.187501,22.7918657 44.7734361,22.9520296 C44.3593739,23.1121934 44.0000009,23.2883698 43.6953119,23.4805669 L43.249999,23.7688613 C42.5234332,23.5606488 41.7734418,23.456544 40.9999987,23.456544 C40.2265582,23.456544 39.4765668,23.5606488 38.750001,23.7688613 C38.6249985,23.6807717 38.4589856,23.572663 38.2519519,23.4445325 C38.0449207,23.3163993 37.7187514,23.1622439 37.2734385,22.982061 C36.828123,22.8018753 36.4921887,22.747821 36.2656249,22.8198952 C35.9218733,23.7248219 35.8945287,24.5416455 36.1835937,25.270393 C35.5664037,25.9510893 35.2578113,26.7759232 35.2578113,27.7449165 C35.2578113,28.4256127 35.3378896,29.026219 35.4980461,29.5467541 C35.6582025,30.0672865 35.8632807,30.4877098 36.1132804,30.8080401 C36.3632828,31.1283677 36.6777315,31.3966375 37.0566398,31.6128603 C37.435548,31.8290804 37.802733,31.9852404 38.1582026,32.0813376 C38.5136722,32.1774348 38.9140609,32.2495091 39.3593737,32.2975577 C39.0468727,32.5858547 38.8554682,32.9982703 38.785155,33.5348208 C38.6210925,33.6149027 38.445312,33.6749627 38.2578135,33.7150037 C38.0703124,33.7550447 37.8476573,33.7750638 37.5898429,33.7750638 C37.3320311,33.7750638 37.0761724,33.6889788 36.8222666,33.5168008 C36.5683583,33.3446255 36.3515622,33.0943729 36.1718757,32.766035 C36.0234372,32.5097739 35.8339857,32.3015642 35.6035159,32.1413977 C35.3730462,31.9812339 35.1796887,31.8851367 35.0234382,31.853106 L34.7890624,31.8170689 C34.6249992,31.8170689 34.5117191,31.8350861 34.4492187,31.8711233 C34.3867185,31.9071604 34.3671874,31.9532071 34.390625,32.0092633 C34.4140626,32.0653223 34.4492184,32.1213786 34.4960938,32.1774348 C34.542969,32.2334938 34.5937496,32.2815424 34.6484386,32.3215833 L34.7304698,32.3816434 C34.9023443,32.4617253 35.0722658,32.6138788 35.2402343,32.8381092 C35.4082028,33.0623396 35.5312497,33.2665456 35.6093749,33.450735 L35.7265628,33.7270152 C35.8281267,34.0313275 35.9999985,34.2775763 36.2421863,34.4657688 C36.4843767,34.6539615 36.7460918,34.774083 37.0273448,34.8261363 C37.3085951,34.8781895 37.5800779,34.9062179 37.8417956,34.910222 C38.103516,34.9142261 38.3203121,34.9002119 38.4921866,34.8681792 L38.761719,34.82013 C38.761719,35.1244418 38.763672,35.4808017 38.767578,35.8892203 C38.771484,36.2976385 38.773437,36.513857 38.773437,36.5378816 C38.773437,36.6820293 38.7226564,36.8021506 38.6210925,36.898249 C38.5195312,36.9943475 38.3632834,37.0223758 38.1523436,36.9823347 C36.3398337,36.3657031 34.8613339,35.2545812 33.716797,33.6489352 C32.57226,32.0432905 32,30.235466 32,28.2254053 C32,26.5516901 32.4023398,25.0081316 33.2070311,23.5946841 C34.0117228,22.1812365 35.1035086,21.0621051 36.482421,20.2372604 C37.8613361,19.4124156 39.3671805,19 40.9999987,19 C42.6328195,19 44.1386639,19.4124156 45.517579,20.2372604 C46.8964914,21.0621051 47.9882762,22.1812365 48.7929673,23.5946841 C49.597661,25.0081316 50,26.5516901 50,28.2254053 Z" id="Page-1"></path>
                </g>
            </g>
        </g>
    </g>
</svg>