<?xml version="1.0" encoding="UTF-8"?>
<svg width="90px" height="39px" viewBox="0 0 90 39" version="1.1" xmlns="http://www.w3.org/2000/svg" xmlns:xlink="http://www.w3.org/1999/xlink">
    <!-- Generator: Sketch 42 (36781) - http://www.bohemiancoding.com/sketch -->
    <title>IR Logo</title>
    <desc>Created with Sketch.</desc>
    <defs></defs>
    <g id="Page-1" stroke="none" stroke-width="1" fill="none" fill-rule="evenodd">
        <g id="Desktop-HD" transform="translate(-1300.000000, -30.000000)">
            <g id="IR-Logo" transform="translate(1300.000000, 30.000000)">
                <path d="M34.9161361,24.050247 C28.2762512,24.050247 22.8935615,18.6794079 22.8935615,12.0541413 C22.8935615,5.42887482 28.2762512,0.0580357143 34.9161361,0.0580357143 C41.556021,0.0580357143 46.9387106,5.42887482 46.9387106,12.0541413 C46.9387106,18.6794079 41.556021,24.050247 34.9161361,24.050247 Z M34.9161361,18.3509477 C38.4014397,18.3509477 41.2268361,15.5317717 41.2268361,12.0541413 C41.2268361,8.57651102 38.4014397,5.75733494 34.9161361,5.75733494 C31.4308325,5.75733494 28.605436,8.57651102 28.605436,12.0541413 C28.605436,15.5317717 31.4308325,18.3509477 34.9161361,18.3509477 Z" id="infinity-left-circle" fill="#E73536"></path>
                <path d="M46.2076686,20.875822 C48.3498369,22.8465164 51.2115024,24.050247 54.3549348,24.050247 C60.9948197,24.050247 66.3775094,18.6794079 66.3775094,12.0541413 C66.3775094,5.42887482 60.9948197,0.0580357143 54.3549348,0.0580357143 C51.180704,0.0580357143 48.2937885,1.28546938 46.1449113,3.29060591 C47.4403766,4.92470629 48.3844658,6.84886915 48.8633489,8.94951505 C49.9481169,7.04327996 52.0010202,5.75733494 54.3549348,5.75733494 C57.8402384,5.75733494 60.6656349,8.57651102 60.6656349,12.0541413 C60.6656349,15.5317717 57.8402384,18.3509477 54.3549348,18.3509477 C52.0170013,18.3509477 49.9760059,17.0824045 48.8855766,15.1975071 C48.421576,17.3026022 47.4910543,19.2331761 46.2076686,20.875822 Z" id="infinity-right-circle" fill="#E73536"></path>
                <polygon id="Path-Copy-2" fill="#FFFFFF" points="57.0628102 29.7495462 57.0628102 31.5708131 52.4954695 31.5708131 52.4954695 33.4575932 56.6034512 33.4575932 56.6034512 35.2002443 52.4954695 35.2002443 52.4954695 37.100127 57.2071802 37.100127 57.2071802 38.9082913 50.4480409 38.9082913 50.4480409 29.7495462"></polygon>
                <polygon id="Path-Copy-3" fill="#FFFFFF" points="46.2989112 31.5184025 46.2989112 38.9082913 44.2514826 38.9082913 44.2514826 31.5184025 41.6528232 31.5184025 41.6528232 29.7495462 48.8975706 29.7495462 48.8975706 31.5184025"></polygon>
                <polygon id="Path-Copy-4" fill="#FFFFFF" points="38.0849519 29.7495462 40.1323805 29.7495462 40.1323805 38.9082913 38.0849519 38.9082913"></polygon>
                <polygon id="Path-Copy-5" fill="#FFFFFF" points="33.7992392 29.7495462 35.8466678 29.7495462 35.8466678 38.9082913 33.7992392 38.9082913 29.4287666 33.1693351 29.4287666 38.9082913 27.381338 38.9082913 27.381338 29.7495462 29.2975212 29.7495462 33.7992392 35.645734"></polygon>
                <polygon id="Path-Copy-6" fill="#FFFFFF" points="23.0667029 29.7495462 25.1141315 29.7495462 25.1141315 38.9082913 23.0667029 38.9082913"></polygon>
                <polygon id="Path-Copy-7" fill="#FFFFFF" points="21.4010031 29.7495462 21.4010031 31.5446078 17.1486514 31.5446078 17.1486514 33.5231064 21.1910104 33.5231064 21.1910104 35.318168 17.1486514 35.318168 17.1486514 38.9082913 15.1012228 38.9082913 15.1012228 29.7495462"></polygon>
                <polygon id="Path-Copy-8" fill="#FFFFFF" points="10.7325363 29.7495462 12.7799649 29.7495462 12.7799649 38.9082913 10.7325363 38.9082913 6.36206367 33.1693351 6.36206367 38.9082913 4.31463508 38.9082913 4.31463508 29.7495462 6.23081825 29.7495462 10.7325363 35.645734"></polygon>
                <polygon id="Path-Copy-9" fill="#FFFFFF" points="0 29.7495462 2.0474286 29.7495462 2.0474286 38.9082913 0 38.9082913"></polygon>
                <path d="M70.3355255,32.7893586 C70.3355255,34.2568616 69.7536766,35.2046097 68.5899614,35.6326314 L70.9130054,38.9082913 L68.3930933,38.9082913 L66.3587892,35.9864027 L64.9413387,35.9864027 L64.9413387,38.9082913 L62.8939101,38.9082913 L62.8939101,29.7495462 L66.3719138,29.7495462 C67.7981212,29.7495462 68.815263,29.9897588 69.4233698,30.4701914 C70.0314767,30.9506239 70.3355255,31.7236719 70.3355255,32.7893586 Z M67.812053,33.8606649 C68.0657954,33.6335513 68.1926647,33.2732323 68.1926647,32.7796971 C68.1926647,32.2861619 68.0614206,31.9476804 67.7989285,31.7642425 C67.5364363,31.5808047 67.0770819,31.4890871 66.4208515,31.4890871 L64.8852801,31.4890871 L64.8852801,34.2013335 L66.3814779,34.2013335 C67.081457,34.2013335 67.5583106,34.0877784 67.812053,33.8606649 Z" id="Path-Copy-11" fill="#FFFFFF"></path>
                <polygon id="Path-Copy-12" fill="#FFFFFF" points="79.0506608 29.7495462 79.0506608 31.5708131 74.4833201 31.5708131 74.4833201 33.4575932 78.5913018 33.4575932 78.5913018 35.2002443 74.4833201 35.2002443 74.4833201 37.100127 79.1950308 37.100127 79.1950308 38.9082913 72.4358915 38.9082913 72.4358915 29.7495462"></polygon>
                <path d="M87.9906935,30.9484377 C88.8656673,31.7477027 89.3031477,32.8592322 89.3031477,34.2830595 C89.3031477,35.7068868 88.8766043,36.8337025 88.0235048,37.6635405 C87.1704053,38.4933785 85.8689012,38.9082913 84.1189535,38.9082913 L80.9821879,38.9082913 L80.9821879,29.7495462 L84.2239498,29.7495462 C85.8601509,29.7495462 87.1157196,30.1491727 87.9906935,30.9484377 Z M86.5148486,36.3501664 C87.0179585,35.878469 87.2695097,35.1927711 87.2695097,34.293052 C87.2695097,33.3933329 87.0179585,32.7010837 86.5148486,32.2162836 C86.0117386,31.7314835 85.2395857,31.4890871 84.1983668,31.4890871 L83.0565317,31.4890871 L83.0565317,37.057709 L84.3558614,37.057709 C85.2920834,37.057709 86.0117386,36.8218638 86.5148486,36.3501664 Z" id="Path-Copy-14" fill="#FFFFFF"></path>
            </g>
        </g>
    </g>
</svg>